<?xml version="1.0" encoding="UTF-8" standalone="no"?>
<svg width="18px" height="18px" viewBox="0 0 18 18" version="1.1" xmlns="http://www.w3.org/2000/svg" xmlns:xlink="http://www.w3.org/1999/xlink">
    <!-- Generator: Sketch 40.1 (33804) - http://www.bohemiancoding.com/sketch -->
    <title>Footer</title>
    <desc>Created with Sketch.</desc>
    <defs></defs>
    <g id="Screens" stroke="none" stroke-width="1" fill="none" fill-rule="evenodd">
        <g id="Styleguide" transform="translate(-193.000000, -2321.000000)" fill="#4A4A4A">
            <g id="Footer" transform="translate(192.885417, 2321.000000)">
                <g id="Icones">
                    <g id="Group-3">
                        <g id="Fullscreen" transform="translate(0.561404, 0.561404)">
                            <path d="M11.9147935,0 L11.9147935,0.854597152 L15.5639233,0.854597152 L11.0798521,5.33866841 L11.6831977,5.9428686 L16.1877793,1.43828701 L16.1877793,5.12758291 L17.0423764,5.12758291 L17.0423764,0 L11.9147935,0 L11.9147935,0 Z M9.09494702e-13,0 L9.09494702e-13,5.12758291 L0.85545175,5.12758291 L0.85545175,1.43828701 L5.35917874,5.9428686 L5.96337893,5.33866841 L1.47930767,0.854597152 L5.12758291,0.854597152 L5.12758291,0 L9.09494702e-13,0 L9.09494702e-13,0 Z M11.109763,11.7139632 L15.5938342,16.1980344 L11.945559,16.1980344 L11.945559,17.0526316 L17.0731419,17.0526316 L17.0731419,11.9250487 L16.2176902,11.9250487 L16.2176902,15.6143446 L11.7139632,11.109763 L11.109763,11.7139632 L11.109763,11.7139632 Z M0.85545175,15.6143446 L0.85545175,11.9250487 L9.09494702e-13,11.9250487 L9.09494702e-13,17.0526316 L5.12758291,17.0526316 L5.12758291,16.1980344 L1.47930767,16.1980344 L5.96337893,11.7139632 L5.35917874,11.109763 L0.85545175,15.6143446 L0.85545175,15.6143446 Z" id="Shape"></path>
                        </g>
                    </g>
                </g>
            </g>
        </g>
    </g>
</svg>