<?xml version="1.0" encoding="UTF-8" standalone="no"?>
<svg width="17px" height="29px" viewBox="0 0 17 29" version="1.1" xmlns="http://www.w3.org/2000/svg" xmlns:xlink="http://www.w3.org/1999/xlink">
    <!-- Generator: Sketch 40.1 (33804) - http://www.bohemiancoding.com/sketch -->
    <title>Page 1</title>
    <desc>Created with Sketch.</desc>
    <defs></defs>
    <g id="Screens" stroke="none" stroke-width="1" fill="none" fill-rule="evenodd">
        <g id="Styleguide" transform="translate(-314.000000, -2316.000000)" fill="#4A4A4A">
            <g id="Page-1" transform="translate(314.531250, 2316.000000)">
                <path d="M15.5427575,21.9777902 C15.2903766,21.3695058 14.4351385,20.3132909 13.9237099,19.8952729 C13.6153289,19.643099 13.0376147,19.3668815 12.6618051,19.2326538 C11.7650432,18.9121354 10.1056147,18.4384574 9.18561466,18.1913951 C8.4877099,18.0039686 7.07361466,17.5524409 6.37609085,17.3631212 C5.726948,17.1868645 4.06466228,16.8089823 3.4237099,16.6058422 C2.970948,16.4623378 1.80580514,16.0358004 1.518948,15.6592434 C1.25856704,15.3175212 1.33856704,14.646572 1.47132895,14.428665 C1.56713847,14.271151 1.97132895,13.9317006 1.97132895,13.9317006 C1.97132895,13.9317006 2.56656704,13.5293962 2.75704324,13.4584012 C2.86809085,13.4169402 2.36904324,13.275897 2.30466228,13.3164114 C1.85228133,13.6003911 1.238948,14.1439281 0.97132895,14.4996599 C0.70980514,14.847251 0.301995616,15.5138458 0.177614664,15.9354609 C-0.0920996219,16.8504433 0.010757521,17.7315374 0.0665670448,18.286055 C0.0983765686,18.6031656 0.307709902,19.3138719 0.47132895,19.5876283 C0.832662283,20.191937 1.99361466,21.1269872 2.59037657,21.5044908 C3.47437657,22.0637414 5.49951943,22.6231812 6.49513847,22.9480539 C7.27990038,23.2040143 8.74942419,23.5951489 9.54275752,23.8236578 C10.2732337,24.0341814 11.7120909,24.5300098 12.4475194,24.7229266 C12.718567,24.7939215 13.3006623,24.8194797 13.5427575,24.9595763 C13.8562813,25.141134 14.3614242,25.7128796 14.4951385,26.0481649 C14.578567,26.2571739 14.5968528,26.7465655 14.4951385,26.9474338 C14.2884718,27.3554178 13.2570432,27.9176975 13.018948,28.0360223 C12.9378051,28.0763475 12.8294242,28.2900895 12.8760909,28.3673319 C12.9237099,28.4462783 13.9713289,27.7047128 13.9713289,27.7047128 C13.9713289,27.7047128 15.0006623,26.8378176 15.2094242,26.4741344 C15.3941861,26.1522908 15.6534242,25.3722934 15.7094242,24.9832413 C15.7623766,24.6142571 15.8292337,23.8382354 15.8284718,23.4450183 C15.8277099,23.0633497 15.6892337,22.3304929 15.5427575,21.9777902" id="Fill-4"></path>
                <path d="M8.47073292,5.11580066 C9.36482816,5.11580066 10.0897805,5.83635165 10.0897805,6.72501858 C10.0897805,7.61368551 9.36482816,8.33423649 8.47073292,8.33423649 C7.57663768,8.33423649 6.8516853,7.61368551 6.8516853,6.72501858 C6.8516853,5.83635165 7.57663768,5.11580066 8.47073292,5.11580066 M8.18501863,13.5878597 C11.7968282,13.5878597 15.2326377,10.5517388 15.2326377,6.96166827 C15.2326377,3.37178709 12.5650186,0.134040643 8.47073292,0.0041672918 C3.99454244,-0.137822524 1.39130435,3.37197641 1.39130435,6.96166827 C1.39130435,10.5517388 4.57320911,13.5878597 8.18501863,13.5878597" id="Fill-1"></path>
            </g>
        </g>
    </g>
</svg>