<?xml version="1.0" encoding="UTF-8" standalone="no"?>
<svg width="33px" height="32px" viewBox="0 0 33 32" version="1.1" xmlns="http://www.w3.org/2000/svg" xmlns:xlink="http://www.w3.org/1999/xlink">
    <!-- Generator: Sketch 40.1 (33804) - http://www.bohemiancoding.com/sketch -->
    <title>Shape</title>
    <desc>Created with Sketch.</desc>
    <defs></defs>
    <g id="Screens" stroke="none" stroke-width="1" fill="none" fill-rule="evenodd">
        <g id="Loading-Page" transform="translate(-784.000000, -894.000000)" fill="#CDCDCD">
            <g id="Headphones" transform="translate(626.000000, 894.000000)">
                <path d="M190.585315,20.4578017 C190.573062,19.6280046 190.061686,18.4318078 189.292364,17.7956837 L189.292364,14.9637392 C189.292364,14.6137743 189.024101,14.3289042 188.685548,14.3021573 C188.286055,11.5340186 187.473205,8.91314879 185.979702,6.64159935 C185.976478,6.120519 185.636635,5.39158655 185.30453,4.98264965 C182.426829,1.32316385 178.582477,0 174.478568,0 C170.374981,0 166.530307,1.32316385 163.65712,4.97684912 C163.274071,5.44926953 162.978724,6.17659072 162.977111,6.6419216 C161.484253,8.91314879 160.672048,11.5340186 160.272233,14.3024796 C159.933357,14.3289042 159.664772,14.6137743 159.664772,14.9640615 L159.664772,17.7956837 C158.89545,18.43213 158.384074,19.6283269 158.371821,20.458124 C158.351831,22.2015035 158.351831,23.9690519 158.371821,25.714365 C158.389555,26.9321526 159.387481,28.1035361 160.554038,28.2727181 C160.637225,28.2846414 160.726539,28.2904419 160.821656,28.2904419 C161.365276,28.2904419 162.152009,28.0774338 162.820732,27.6984662 L162.820732,29.8211356 C162.825569,30.2806659 163.176697,30.7369738 163.634227,30.8810201 C164.157533,31.0479463 164.697606,31.1326984 165.239291,31.1326984 L165.239614,31.1326984 C165.91543,31.1326984 166.591247,31.0012198 167.24804,30.743741 C167.686869,30.5713366 168.016394,30.0753918 168.016394,29.6751557 L168.016394,15.1877039 L168.0251,15.1873817 C168.020586,14.7507311 167.686547,14.2912008 167.248685,14.1200853 C166.064394,13.65411 164.806911,13.6070613 163.636162,13.9818395 C163.175729,14.1271749 162.825246,14.5828382 162.82041,15.0423686 L162.82041,17.6390696 C162.618567,17.5111358 162.38287,17.4064041 162.124602,17.3422761 L162.124602,14.9643838 C162.124602,14.7565317 162.028518,14.5731707 161.881166,14.4507152 C162.209079,12.0016053 162.887798,9.69041893 164.19816,7.69536111 C164.561218,7.56710509 165.357624,7.28255719 165.697467,6.86943102 C168.182769,3.75293867 171.301327,2.72882403 174.478568,2.72882403 C177.655486,2.72882403 180.774367,3.75293867 183.264506,6.8749093 C183.597578,7.28062369 184.390437,7.56420483 184.758654,7.69503886 C186.068371,9.68977443 186.747412,12.0009608 187.076292,14.4503929 C186.928618,14.5725262 186.832534,14.7562094 186.832534,14.9640615 L186.832534,17.3419539 C186.574266,17.4064041 186.338891,17.5108135 186.136726,17.6387473 L186.136726,15.0420463 C186.132212,14.582516 185.781084,14.1268526 185.320974,13.9815173 C184.150548,13.606739 182.892742,13.6537877 181.708773,14.1197631 C181.270911,14.2908785 180.936872,14.7504089 180.932681,15.1870594 L180.941386,15.1873817 L180.941386,29.6745112 C180.941386,30.0747473 181.270589,30.5706921 181.709418,30.7430965 C182.366211,31.0005753 183.04235,31.1320539 183.717845,31.1320539 C184.259852,31.1320539 184.799925,31.0469795 185.323231,30.8803756 C185.781084,30.7363293 186.132212,30.2800214 186.136404,29.8204911 L186.136404,27.6978217 C186.804804,28.0767893 187.59186,28.2897974 188.13548,28.2897974 C188.230274,28.2897974 188.319588,28.2839969 188.403098,28.2720736 C189.569333,28.1028916 190.567258,26.9315081 190.585315,25.7137205 C190.604983,23.9687297 190.604983,22.2015035 190.585315,20.4578017 L190.585315,20.4578017 Z" id="Shape"></path>
            </g>
        </g>
    </g>
</svg>