<?xml version="1.0" encoding="utf-8"?>
<!-- Generator: Adobe Illustrator 19.0.0, SVG Export Plug-In . SVG Version: 6.00 Build 0)  -->
<svg version="1.1" id="Calque_1" xmlns="http://www.w3.org/2000/svg" xmlns:xlink="http://www.w3.org/1999/xlink" x="0px" y="0px"
	 viewBox="-1037.8 547 18 18" style="enable-background:new -1037.8 547 18 18;" xml:space="preserve">
<style type="text/css">
	.st0{fill:#CDCDCD;}
</style>
<title>twitter-logo-silhouette</title>
<desc>Created with Sketch.</desc>
<g id="Screens">
	<g id="Styleguide" transform="translate(-425.000000, -2323.000000)">
		<g id="twitter-logo-silhouette" transform="translate(425.177083, 2323.000000)">
			<g id="Capa_1">
				<path id="Shape" class="st0" d="M-1020,550.4c-0.7,0.3-1.4,0.5-2.1,0.6c0.8-0.5,1.3-1.2,1.6-2c-0.7,0.4-1.5,0.7-2.3,0.9
					c-0.7-0.7-1.6-1.2-2.7-1.2c-2,0-3.7,1.7-3.7,3.7c0,0.3,0,0.6,0.1,0.8c-3.1-0.2-5.8-1.6-7.6-3.9c-0.3,0.5-0.5,1.2-0.5,1.9
					c0,1.3,0.7,2.4,1.6,3.1c-0.6,0-1.2-0.2-1.7-0.5v0c0,1.8,1.3,3.3,3,3.6c-0.3,0.1-0.6,0.1-1,0.1c-0.2,0-0.5,0-0.7-0.1
					c0.5,1.5,1.8,2.5,3.4,2.6c-1.3,1-2.9,1.6-4.6,1.6c-0.3,0-0.6,0-0.9-0.1c1.6,1,3.6,1.7,5.7,1.7c6.8,0,10.5-5.6,10.5-10.5l0-0.5
					C-1021.1,551.8-1020.5,551.2-1020,550.4L-1020,550.4z"/>
			</g>
		</g>
	</g>
</g>
</svg>
