<?xml version="1.0" encoding="UTF-8" standalone="no"?>
<svg width="20px" height="16px" viewBox="0 0 20 16" version="1.1" xmlns="http://www.w3.org/2000/svg" xmlns:xlink="http://www.w3.org/1999/xlink">
    <!-- Generator: Sketch 40.1 (33804) - http://www.bohemiancoding.com/sketch -->
    <title>twitter-logo-silhouette</title>
    <desc>Created with Sketch.</desc>
    <defs></defs>
    <g id="Screens" stroke="none" stroke-width="1" fill="none" fill-rule="evenodd">
        <g id="Styleguide" transform="translate(-425.000000, -2323.000000)" fill="#4A4A4A">
            <g id="twitter-logo-silhouette" transform="translate(425.177083, 2323.000000)">
                <g id="Capa_1">
                    <path d="M19.2912047,1.85400758 C18.58118,2.16862495 17.8193338,2.38199485 17.0188736,2.4772532 C17.8361979,1.98781689 18.4618391,1.21150224 18.7583631,0.2893055 C17.991694,0.742554985 17.1454329,1.0716723 16.2437252,1.25008471 C15.5216593,0.479790696 14.4945901,-4.4408921e-15 13.3553985,-4.4408921e-15 C11.1698779,-4.4408921e-15 9.39782658,1.77205135 9.39782658,3.95637407 C9.39782658,4.26616862 9.43278407,4.56874473 9.50030339,4.85808175 C6.21177806,4.69290842 3.29574379,3.1173629 1.34408221,0.723263749 C1.00292363,1.30672908 0.808844969,1.98658755 0.808844969,2.71230998 C0.808844969,4.08536057 1.50802619,5.29686281 2.56885506,6.00565813 C1.92029756,5.98397125 1.31032254,5.80555884 0.776314649,5.50900336 L0.776314649,5.55842928 C0.776314649,7.47513337 2.14091744,9.07479294 3.95032191,9.43886774 C3.61880895,9.52807395 3.2692341,9.57749986 2.90758647,9.57749986 C2.65204063,9.57749986 2.40491107,9.55218799 2.16260432,9.5039599 C2.66647754,11.0771098 4.12753651,12.2210927 5.85860974,12.2524567 C4.50485039,13.3132856 2.7978912,13.9437497 0.943883622,13.9437497 C0.624443446,13.9437497 0.309794558,13.9244584 0,13.8895009 C1.75156229,15.0142241 3.83101255,15.6700001 6.06595901,15.6700001 C13.3458159,15.6700001 17.3251062,9.64019638 17.3251062,4.4108529 L17.3118356,3.89853188 C18.0893481,3.34397188 18.7619881,2.64721782 19.2912047,1.85400758 L19.2912047,1.85400758 Z" id="Shape"></path>
                </g>
            </g>
        </g>
    </g>
</svg>