<?xml version="1.0" encoding="UTF-8" standalone="no"?>
<svg width="29px" height="15px" viewBox="0 0 29 15" version="1.1" xmlns="http://www.w3.org/2000/svg" xmlns:xlink="http://www.w3.org/1999/xlink">
    <!-- Generator: Sketch 40.1 (33804) - http://www.bohemiancoding.com/sketch -->
    <title>noun_647271_cc</title>
    <desc>Created with Sketch.</desc>
    <defs></defs>
    <g id="Screens" stroke="none" stroke-width="1" fill="none" fill-rule="evenodd">
        <g id="Styleguide" transform="translate(-124.000000, -2323.000000)" fill="#4A4A4A">
            <g id="noun_647271_cc" transform="translate(124.000000, 2323.000000)">
                <g id="cardboard">
                    <path d="M26.493069,1.77635684e-15 L2.07858805,1.77635684e-15 C0.931430898,0.00196599773 0.00196599773,0.931430898 0,2.07858805 L0,12.9215319 C0.00196599773,14.068689 0.931430898,14.9981539 2.07858805,15.0001199 L11.6036642,15.0001199 C11.8574658,15.0025918 12.0920914,14.8653839 12.2143834,14.6429742 L13.6429662,11.742951 C13.7563472,11.5088486 13.9935716,11.360159 14.2536854,11.360159 C14.5137992,11.360159 14.7510236,11.5088486 14.8644046,11.742951 L16.2251297,14.6001167 C16.337428,14.8474046 16.5857213,15.0045168 16.8572776,15.0001199 L26.5002119,15.0001199 C27.6445786,14.9942328 28.5697092,14.0659121 28.571657,12.9215319 L28.571657,2.07858805 C28.569691,0.931430898 27.6402261,0.00196599773 26.493069,1.77635684e-15 L26.493069,1.77635684e-15 Z M7.85720568,9.93936519 C6.86963538,9.94370302 5.97689312,9.35214357 5.59595681,8.44098966 C5.21502049,7.52983575 5.42106412,6.47889458 6.1178498,5.77903485 C6.81463547,5.07917511 7.86465945,4.8685072 8.77748142,5.2454289 C9.6903034,5.6223506 10.285787,6.51248014 10.2857965,7.50005997 C10.2858095,8.84307789 9.20021064,9.93346613 7.85720568,9.93936519 L7.85720568,9.93936519 Z M20.7144513,9.93936519 C19.726881,9.94370302 18.8341388,9.35214357 18.4532025,8.44098966 C18.0722661,7.52983575 18.2783098,6.47889458 18.9750955,5.77903485 C19.6718811,5.07917511 20.7219051,4.8685072 21.6347271,5.2454289 C22.5475491,5.6223506 23.1430327,6.51248014 23.1430422,7.50005997 C23.1430551,8.84307789 22.0574563,9.93346613 20.7144513,9.93936519 L20.7144513,9.93936519 Z" id="Shape"></path>
                </g>
            </g>
        </g>
    </g>
</svg>